# xmcd
#
# Track frame offsets:
#       225
#       14450
#       29290
#       37938
#       53790
#       70023
#       85193
#       102033
#       115458
#       126075
#       148545
#       161768
#
# Disc length: 2283 seconds
#
# Revision: 1
# Processed by: cddbd v1.5.1PL0 Copyright (c) Steve Scherf et al.
# Submitted via: MusiCat 1.1
#
DISCID=9908e80c
DTITLE=O Melhor da Bossa - 30 anos de bossa nova vol 6 
DYEAR=1900
DGENRE=
TTITLE0=Nós e o mar
TTITLE1=Retrato em branco e preto
TTITLE2=Derradeira primavera
TTITLE3=Balanço zona sul
TTITLE4=Pranto
TTITLE5=Eu sei que vou te amar
TTITLE6=Minha namorada
TTITLE7=Estradado sol
TTITLE8=De manhã
TTITLE9=Reza
TTITLE10=Inútil paisagem
TTITLE11=O pato
EXTD=\n\n
EXTT0=
EXTT1=
EXTT2=
EXTT3=
EXTT4=
EXTT5=
EXTT6=
EXTT7=
EXTT8=
EXTT9=
EXTT10=
EXTT11=
PLAYORDER=
